<?xml version="1.0" encoding="utf-8"?>
<!-- Generator: Adobe Illustrator 27.5.0, SVG Export Plug-In . SVG Version: 6.00 Build 0)  -->
<svg version="1.1" xmlns="http://www.w3.org/2000/svg" xmlns:xlink="http://www.w3.org/1999/xlink" x="0px" y="0px"
	 viewBox="0 0 750 500" style="enable-background:new 0 0 750 500;" xml:space="preserve">
<g id="BACKGROUND">
	<rect style="opacity:0.3;fill:#FF9E00;" width="750" height="500"/>
</g>
<g id="OBJECTS">
	<g>
		<path style="opacity:0.3;fill:#FF9E00;" d="M711.074,371.584c0,8.284-6.715,14.999-14.999,14.999H55.606
			c-8.284,0-14.999-6.715-14.999-14.999l0,0c0-8.284,6.715-14.999,14.999-14.999h640.468
			C704.358,356.585,711.074,363.301,711.074,371.584L711.074,371.584z"/>
		<g>
			<g>
				<g>
					<g>
						<path style="fill:#23232D;" d="M583.495,257.68c-32.443,0-58.743,26.3-58.743,58.743c0,32.443,26.3,58.743,58.743,58.743
							c32.443,0,58.743-26.3,58.743-58.743C642.238,283.98,615.938,257.68,583.495,257.68z M583.495,351.31
							c-19.267,0-34.887-15.619-34.887-34.887c0-19.267,15.619-34.887,34.887-34.887s34.887,15.619,34.887,34.887
							C618.382,335.69,602.762,351.31,583.495,351.31z"/>
						<path style="fill:#0F0D11;" d="M583.495,275.375c-22.67,0-41.047,18.378-41.047,41.048s18.378,41.048,41.047,41.048
							c22.67,0,41.048-18.378,41.048-41.048S606.165,275.375,583.495,275.375z"/>
					</g>
					<g>
						<g>
							<polygon style="fill:#269489;" points="581.755,308.988 585.235,308.988 590.475,281.45 576.515,281.45 							"/>
							<polygon style="fill:#269489;" points="576.045,316.257 577.265,312.998 553.315,298.432 548.419,311.505 							"/>
							<polygon style="fill:#269489;" points="580.656,324.097 577.765,322.16 558.088,342.124 569.686,349.892 							"/>
							<polygon style="fill:#269489;" points="589.446,321.235 586.619,323.263 598.412,348.693 609.755,340.556 							"/>
							<polygon style="fill:#269489;" points="590.743,316.257 589.522,312.998 613.472,298.432 618.369,311.505 							"/>
						</g>
						<g>
							<g>
								<path style="fill:#269489;" d="M583.495,305.863c-5.832,0-10.56,4.728-10.56,10.56c0,5.832,4.728,10.56,10.56,10.56
									c5.832,0,10.56-4.728,10.56-10.56C594.055,310.591,589.327,305.863,583.495,305.863z"/>
								<path style="fill:#5AB79C;" d="M583.495,310.781c-3.116,0-5.642,2.526-5.642,5.642c0,3.116,2.526,5.642,5.642,5.642
									c3.116,0,5.642-2.526,5.642-5.642C589.137,313.307,586.611,310.781,583.495,310.781z"/>
								<path style="fill:#6FCEAE;" d="M583.495,313.346c-1.699,0-3.077,1.378-3.077,3.077s1.378,3.077,3.077,3.077
									s3.077-1.378,3.077-3.077S585.194,313.346,583.495,313.346z"/>
							</g>
							<g>
								<path style="fill:#6FCEAE;" d="M576.806,310.108c0,0.885,0.717,1.602,1.602,1.602s1.602-0.717,1.602-1.602
									c0-0.885-0.717-1.602-1.602-1.602S576.806,309.223,576.806,310.108z"/>
								<path style="fill:#6FCEAE;" d="M574.282,319.234c0,0.885,0.717,1.602,1.602,1.602c0.885,0,1.602-0.717,1.602-1.602
									c0-0.885-0.717-1.602-1.602-1.602C574.999,317.632,574.282,318.35,574.282,319.234z"/>
								<circle style="fill:#6FCEAE;" cx="583.36" cy="324.574" r="1.602"/>
								<circle style="fill:#6FCEAE;" cx="591.03" cy="319.04" r="1.602"/>
								<path style="fill:#6FCEAE;" d="M586.515,309.914c0,0.885,0.717,1.602,1.602,1.602c0.885,0,1.602-0.717,1.602-1.602
									c0-0.885-0.717-1.602-1.602-1.602C587.232,308.312,586.515,309.029,586.515,309.914z"/>
							</g>
						</g>
						<g>
							<path style="fill:#5AB79C;" d="M583.495,278.412c-20.993,0-38.011,17.018-38.011,38.011
								c0,20.993,17.018,38.011,38.011,38.011c20.993,0,38.011-17.018,38.011-38.011
								C621.506,295.43,604.488,278.412,583.495,278.412z M583.495,349.69c-18.373,0-33.267-14.894-33.267-33.267
								c0-18.373,14.894-33.267,33.267-33.267s33.267,14.894,33.267,33.267C616.762,334.796,601.868,349.69,583.495,349.69z"/>
							<circle style="fill:none;stroke:#269489;stroke-width:2.0489;stroke-miterlimit:10;" cx="583.495" cy="316.423" r="32.052"/>
						</g>
					</g>
				</g>
				<g>
					<g>
						<path style="fill:#23232D;" d="M145.953,257.68c-32.443,0-58.743,26.3-58.743,58.743c0,32.443,26.3,58.743,58.743,58.743
							c32.443,0,58.743-26.3,58.743-58.743C204.696,283.98,178.395,257.68,145.953,257.68z M145.953,351.31
							c-19.267,0-34.887-15.619-34.887-34.887c0-19.267,15.619-34.887,34.887-34.887s34.887,15.619,34.887,34.887
							C180.839,335.69,165.22,351.31,145.953,351.31z"/>
						<path style="fill:#0F0D11;" d="M145.953,275.375c-22.67,0-41.048,18.378-41.048,41.048s18.378,41.048,41.048,41.048
							c22.67,0,41.048-18.378,41.048-41.048S168.623,275.375,145.953,275.375z"/>
					</g>
					<g>
						<g>
							<polygon style="fill:#269489;" points="144.213,308.988 147.692,308.988 152.933,281.45 138.973,281.45 							"/>
							<polygon style="fill:#269489;" points="138.502,316.257 139.723,312.998 115.773,298.432 110.876,311.505 							"/>
							<polygon style="fill:#269489;" points="143.114,324.097 140.223,322.16 120.545,342.124 132.144,349.892 							"/>
							<polygon style="fill:#269489;" points="151.904,321.235 149.077,323.263 160.87,348.693 172.213,340.556 							"/>
							<polygon style="fill:#269489;" points="153.201,316.257 151.98,312.998 175.93,298.432 180.826,311.505 							"/>
						</g>
						<g>
							<g>
								<path style="fill:#269489;" d="M145.953,305.863c-5.832,0-10.56,4.728-10.56,10.56c0,5.832,4.728,10.56,10.56,10.56
									c5.832,0,10.56-4.728,10.56-10.56C156.513,310.591,151.785,305.863,145.953,305.863z"/>
								<path style="fill:#5AB79C;" d="M145.953,310.781c-3.116,0-5.642,2.526-5.642,5.642c0,3.116,2.526,5.642,5.642,5.642
									s5.642-2.526,5.642-5.642C151.595,313.307,149.069,310.781,145.953,310.781z"/>
								<path style="fill:#6FCEAE;" d="M145.953,313.346c-1.699,0-3.077,1.378-3.077,3.077s1.378,3.077,3.077,3.077
									c1.699,0,3.077-1.378,3.077-3.077S147.652,313.346,145.953,313.346z"/>
							</g>
							<g>
								<path style="fill:#6FCEAE;" d="M139.264,310.108c0,0.885,0.717,1.602,1.602,1.602c0.885,0,1.602-0.717,1.602-1.602
									c0-0.885-0.717-1.602-1.602-1.602C139.981,308.506,139.264,309.223,139.264,310.108z"/>
								<path style="fill:#6FCEAE;" d="M136.739,319.234c0,0.885,0.717,1.602,1.602,1.602c0.885,0,1.602-0.717,1.602-1.602
									c0-0.885-0.717-1.602-1.602-1.602C137.457,317.632,136.739,318.35,136.739,319.234z"/>
								<path style="fill:#6FCEAE;" d="M144.215,324.574c0,0.885,0.717,1.602,1.602,1.602c0.885,0,1.602-0.717,1.602-1.602
									c0-0.885-0.717-1.602-1.602-1.602C144.932,322.972,144.215,323.69,144.215,324.574z"/>
								<path style="fill:#6FCEAE;" d="M151.885,319.04c0,0.885,0.717,1.602,1.602,1.602c0.885,0,1.602-0.717,1.602-1.602
									c0-0.885-0.717-1.602-1.602-1.602C152.603,317.438,151.885,318.155,151.885,319.04z"/>
								<path style="fill:#6FCEAE;" d="M148.973,309.914c0,0.885,0.717,1.602,1.602,1.602c0.885,0,1.602-0.717,1.602-1.602
									c0-0.885-0.717-1.602-1.602-1.602C149.69,308.312,148.973,309.029,148.973,309.914z"/>
							</g>
						</g>
						<g>
							<path style="fill:#5AB79C;" d="M145.953,278.412c-20.993,0-38.011,17.018-38.011,38.011
								c0,20.993,17.018,38.011,38.011,38.011c20.993,0,38.011-17.018,38.011-38.011
								C183.964,295.43,166.946,278.412,145.953,278.412z M145.953,349.69c-18.373,0-33.267-14.894-33.267-33.267
								c0-18.373,14.894-33.267,33.267-33.267c18.373,0,33.267,14.894,33.267,33.267C179.22,334.796,164.325,349.69,145.953,349.69z
								"/>
							<circle style="fill:none;stroke:#269489;stroke-width:2.0489;stroke-miterlimit:10;" cx="145.953" cy="316.423" r="32.052"/>
						</g>
					</g>
				</g>
			</g>
			<g>
				<g>
					<g>
						<polygon style="fill:#9DE0DA;" points="227.018,219.187 320.58,173.428 332.943,178.441 344.577,174.132 439.155,170.066 
							507.235,177.391 532.657,225.65 424.505,254.519 233.625,231.682 						"/>
						<g>
							<defs>
								<polygon id="SVGID_1_" points="227.018,219.187 320.58,173.428 332.943,178.441 344.577,174.132 439.155,170.066 
									507.235,177.391 532.657,225.65 424.505,254.519 233.625,231.682 								"/>
							</defs>
							<clipPath id="SVGID_00000122701673082203127660000010337131922297803421_">
								<use xlink:href="#SVGID_1_"  style="overflow:visible;"/>
							</clipPath>
							<g style="opacity:0.5;clip-path:url(#SVGID_00000122701673082203127660000010337131922297803421_);">
								
									<rect x="256.775" y="125.658" transform="matrix(0.7071 -0.7071 0.7071 0.7071 -73.0416 251.6386)" style="fill:#FFFFFF;" width="20.917" height="176.661"/>
								
									<rect x="288.661" y="93.772" transform="matrix(0.7071 -0.7071 0.7071 0.7071 -41.1564 264.8459)" style="fill:#FFFFFF;" width="20.917" height="176.661"/>
								
									<rect x="360.187" y="93.772" transform="matrix(0.7071 -0.7071 0.7071 0.7071 -20.2068 315.4226)" style="fill:#FFFFFF;" width="20.917" height="176.661"/>
								
									<rect x="436.022" y="93.772" transform="matrix(0.7071 -0.7071 0.7071 0.7071 2.0048 369.0461)" style="fill:#FFFFFF;" width="20.917" height="176.661"/>
								
									<rect x="302.095" y="131.044" transform="matrix(0.7071 -0.7071 0.7071 0.7071 -65.8072 279.8763)" style="fill:#FFFFFF;" width="5.683" height="176.661"/>
								
									<rect x="433.082" y="131.044" transform="matrix(0.7071 -0.7071 0.7071 0.7071 -27.4419 372.498)" style="fill:#FFFFFF;" width="5.683" height="176.661"/>
								
									<rect x="509.653" y="133.414" transform="matrix(0.7071 -0.7071 0.7071 0.7071 -7.0954 426.3586)" style="fill:#FFFFFF;" width="2.92" height="176.661"/>
								
									<rect x="368.324" y="142.031" transform="matrix(0.7071 -0.7071 0.7071 0.7071 -54.5832 328.9479)" style="fill:#FFFFFF;" width="2.92" height="176.661"/>
							</g>
						</g>
					</g>
					<g>
						<g>
							<polygon style="fill:#0F0D11;" points="492.154,165.73 524.039,159.697 527.486,177.794 							"/>
							<path style="fill:#35353F;" d="M539.7,173.683c0,0-42.663-11.947-79.431-11.372c-36.768,0.575-102.346-4.969-139.689,11.117
								c0,0,10.855-0.329,8.881,4.715c-2.817,7.198,73.931-9.512,73.931-9.512L539.7,173.683z"/>
							<path style="opacity:0.3;fill:#0F0D11;" d="M539.7,173.683c0,0-42.663-11.947-79.431-11.372
								c-36.768,0.575-102.346-4.969-139.689,11.117c0,0,10.855-0.329,8.881,4.715c-2.817,7.198,73.931-9.512,73.931-9.512
								L539.7,173.683z"/>
						</g>
						<g>
							<defs>
								<polygon id="SVGID_00000072243844062273397600000009070189395952327302_" points="227.018,219.187 320.58,173.428 
									439.155,170.066 507.235,177.391 532.657,225.65 424.505,254.519 233.625,231.682 								"/>
							</defs>
							<clipPath id="SVGID_00000008861538488111022560000013120253771214728619_">
								<use xlink:href="#SVGID_00000072243844062273397600000009070189395952327302_"  style="overflow:visible;"/>
							</clipPath>
							
								<path style="clip-path:url(#SVGID_00000008861538488111022560000013120253771214728619_);fill:none;stroke:#0F0D11;stroke-width:2.5626;stroke-linecap:round;stroke-linejoin:round;stroke-miterlimit:10;" d="
								M316.642,174.06c0,0,10.975-0.783,12.065,2.298c0,0-60.323,37.343-65.094,39.493c-1.024,0.461-18.497,10.202-38.719,1.749"/>
						</g>
						<g>
							<path style="fill:#35353F;" d="M255.428,222.755l64.374-40.623c0,0,21.544-17.523,65.207-18.097
								c41.971-0.552,125.817,1.724,149.372,8.043c23.555,6.32,86.176,43.088,86.176,43.088l-96.23-1.724
								c0,0-32.172-32.747-51.418-35.907c-19.246-3.16-94.447-1.342-111.455-1.149c-25.278,0.287-94.507,49.982-94.507,49.982
								l-13.501,2.585L255.428,222.755z"/>
							<path style="opacity:0.3;fill:#0F0D11;" d="M579.967,192.624l-69.599,7.873c8.148,7.036,13.958,12.944,13.958,12.944
								l96.23,1.723C620.556,215.165,601.202,203.802,579.967,192.624z"/>
						</g>
					</g>
				</g>
				<g>
					<g>
						<g>
							<polygon style="fill:#0F0D11;" points="670.539,222.606 720.521,212.265 720.521,227.805 							"/>
							<path style="fill:#35353F;" d="M720.521,227.805c0,0-87.325-22.98-201.652-20.108l-66.643,13.788H279.674l0.136,0.711
								c-21.278,4.092-30.098,24.553-30.674,25.945v52.436l9.803,44.428l262.801-0.108V316.25c0-33.862,27.45-61.312,61.312-61.312
								h2.044c33.862,0,61.312,27.45,61.312,61.312v22.814l67.301-2.361l10.833-11.807l13.788-58.6
								C738.331,266.297,722.244,246.189,720.521,227.805z"/>
							<path style="opacity:0.5;fill:#0F0D11;" d="M662.352,316.25c0-42.361-34.463-76.824-76.824-76.824h-2.044
								c-42.361,0-76.824,34.463-76.824,76.824v22.434h14.937l0.575,0.028V316.25c0-33.862,27.45-61.312,61.312-61.312h2.044
								c33.862,0,61.312,27.45,61.312,61.312v18.271l2.873,0.142h12.639V316.25z"/>
						</g>
						<g>
							<g>
								<path style="fill:#FF9E00;" d="M272.979,222.059c0,0,16.402-1.719,27.002,14.363c16.661,25.278,29.874-20.108,46.966,6.894
									c0,0-13.07-9.192-19.39,6.894c-4.634,11.795-12.065,27.576-33.896,13.788c-23.95-15.126-25.134,15.081-10.916,24.129
									c14.218,9.048,33.61,12.638,51.706-18.384c18.096-31.022,49.316-15.782,56.876-4.022c10.341,16.086,25.952,18.129,35,1.326
									c0,0,10.386,24.527-19.488,30.272c-22.848,4.394-29.588-26.857-47.684-7.469c-18.096,19.389,18.054,46.996,52.954,19.852
									c34.9-27.144,50.411-34.9,73.677-10.341c0,0-22.07-7.787-30.113,10.597c-8.576,19.602,15.895,32.058,36.576,23.01v7.755
									H238.903l-18.205-111.197L272.979,222.059z"/>
								<g>
									<path style="fill:#F02900;" d="M274.385,228.038c3.862,0,13.597,1.14,20.559,11.703
										c4.738,7.189,10.065,10.683,16.285,10.683c4.128,0,7.823-1.616,11.183-3.554c-0.16,0.367-0.317,0.745-0.47,1.134
										c-3.717,9.462-7.227,15.326-13.228,15.326c-3.194,0-7.175-1.491-11.832-4.433c-5.36-3.385-10.296-5.102-14.671-5.103
										c-6.755-0.001-11.954,3.999-13.905,10.7c-2.552,8.761,1.005,22.233,11.201,28.721c7.627,4.854,15.162,7.315,22.395,7.315
										c14.315,0,27.019-9.336,37.76-27.749c6.635-11.375,15.597-17.388,25.915-17.388c8.899,0,17.002,4.452,20.406,8.849
										c9.872,12.752,18.817,18.951,27.345,18.951c2.313,0,5.084-0.476,7.974-2.026c-0.197,0.568-0.439,1.13-0.733,1.682
										c-2.243,4.204-7.246,7.08-14.868,8.545c-1.106,0.213-2.199,0.321-3.25,0.321c-5.908,0-10.536-3.398-15.435-6.995
										c-4.89-3.591-9.947-7.304-16.376-7.305c-0.001,0-0.002,0-0.003,0c-5.469,0-10.667,2.721-15.892,8.319
										c-6.476,6.938-8.182,15.536-4.683,23.589c4.616,10.621,17.414,17.758,31.848,17.758c11.566,0,23.289-4.363,33.902-12.618
										c19.907-15.483,32.674-23.874,43.117-23.874c2.86,0,5.697,0.651,8.62,2.015c-7.932,1.976-13.98,7.11-17.403,14.935
										c-3.39,7.748-2.956,15.531,1.22,21.918c1.268,1.938,2.857,3.693,4.706,5.234H243.983l-17.694-102.467l47.219-4.157
										l-0.003,0.003l0.078-0.009C273.667,228.056,273.948,228.038,274.385,228.038 M274.385,222.006
										c-0.896,0-1.406,0.053-1.406,0.053l-53.75,4.732l19.674,113.934h253.345v-7.755c-4.71,2.06-9.613,3.005-14.281,3.005
										c-15.829,0-28.918-10.878-22.295-26.016c4.354-9.953,12.819-12.235,19.669-12.235c5.802,0,10.445,1.638,10.445,1.638
										c-9.641-10.176-17.948-14.804-26.857-14.804c-12.591,0-26.382,9.248-46.82,25.144
										c-10.452,8.13-21.013,11.347-30.199,11.347c-21.485,0-35.432-17.617-22.755-31.199c4.359-4.671,8.058-6.403,11.483-6.402
										c9.84,0.002,17.411,14.3,31.812,14.3c1.396,0,2.856-0.134,4.389-0.429c29.874-5.745,19.488-30.272,19.488-30.272
										c-3.76,6.982-8.155,10.115-13,10.115c-6.814,0-14.516-6.202-22.575-16.611c-4.359-5.631-14.188-11.188-25.176-11.188
										c-10.585,0-22.247,5.159-31.126,20.381c-10.849,18.599-22.163,24.756-32.549,24.756c-6.938,0-13.463-2.749-19.156-6.372
										c-11.452-7.288-12.913-28.301-0.535-28.3c2.991,0,6.79,1.227,11.45,4.171c6.038,3.813,10.973,5.365,15.053,5.365
										c10.674,0,15.49-10.62,18.843-19.153c2.949-7.507,7.368-9.509,11.243-9.509c4.428,0,8.146,2.615,8.146,2.615
										c-4.216-6.66-8.193-8.915-12.046-8.915c-8.107,0-15.656,9.992-23.671,9.992c-3.622,0-7.342-2.043-11.249-7.97
										C291.248,223.173,278.578,222.006,274.385,222.006L274.385,222.006z"/>
								</g>
							</g>
							<g>
								<path style="fill:#FF9E00;" d="M248.275,247.974l0.03-0.076c0.086-0.22,10.218-19.761,27.846-27.701l-10.64-3.883
									c0,0-16.661,9.767-38.492,2.872c0,0-122.37-5.745-160.862,14.937c0,0-25.278,6.32-27.002,17.81v18.959l-10.916,6.319
									l-0.574,5.745v14.363c0,0,11.49,16.086,16.086,32.172v9.192h39.641l0.575,0.028V316.25
									c0-33.862,27.451-61.312,61.312-61.312h2.044c33.862,0,61.312,27.45,61.312,61.312v28.612l49.131,0.142l-9.49-44.381
									V247.974z"/>
								<path style="fill:#EA7A00;" d="M224.146,316.25c0-42.361-34.463-76.824-76.824-76.824h-2.044
									c-42.361,0-76.824,34.463-76.824,76.824v22.434h14.937l0.575,0.028V316.25c0-33.862,27.451-61.312,61.312-61.312h2.044
									c33.862,0,61.312,27.45,61.312,61.312v28.612h15.512V316.25z"/>
							</g>
						</g>
					</g>
					<g>
						<g>
							<path style="fill:none;stroke:#0F0D11;stroke-width:1.7235;stroke-miterlimit:10;" d="M257.754,341.126l-9.048-40.503
								v-52.568c0,0,7.26-18.573,27.714-27.993"/>
							<polyline style="fill:none;stroke:#0F0D11;stroke-width:1.7235;stroke-miterlimit:10;" points="454.236,220.049 
								458.545,247.625 441.741,339.403 							"/>
						</g>
						<g>
							<polygon style="fill:#0F0D11;" points="649.823,338.827 650.718,339.065 713.71,336.703 725.098,326.86 725.677,319.525 
								730.309,314.893 730.116,306.207 701.55,318.174 646.927,325.316 							"/>
							<polygon style="fill:#0F0D11;" points="88.275,338.713 39.103,338.713 37.686,333.514 43.583,328.918 81.285,328.918 							
								"/>
							<polygon style="fill:#0F0D11;" points="209.209,332.94 522.316,331.216 520.106,344.897 211.48,344.863 							"/>
						</g>
					</g>
					<g>
						<g style="opacity:0.3;">
							<path style="fill:#0F0D11;" d="M249.137,270.577v29.999l9.803,44.428l262.801-0.108V316.25
								c0-18.148,7.89-34.447,20.421-45.673H249.137z"/>
							<path style="fill:#0F0D11;" d="M625.989,270.577c12.53,11.226,20.421,27.526,20.421,45.673v22.814l67.301-2.361
								l10.833-11.807l12.781-54.319H625.989z"/>
						</g>
						<g style="opacity:0.3;">
							<path style="fill:#0F0D11;" d="M39.154,270.893l-10.916,6.319l-0.574,5.745v14.363c0,0,11.49,16.086,16.086,32.172v9.192
								h39.641l0.575,0.028V316.25c0-18.148,7.89-34.447,20.421-45.673L39.154,270.893z"/>
							<path style="fill:#0F0D11;" d="M248.275,270.577h-60.062c12.53,11.226,20.421,27.526,20.421,45.673v28.612l49.131,0.142
								l-9.49-44.381V270.577z"/>
						</g>
					</g>
					<g>
						<g>
							<g>
								<g>
									<g>
										<path style="fill:#EA7A00;" d="M79.163,257.918c0,2.758-2.236,4.994-4.994,4.994H52.322c-2.758,0-4.994-2.236-4.994-4.994
											l0,0c0-2.758,2.236-4.994,4.994-4.994H74.17C76.928,252.924,79.163,255.16,79.163,257.918L79.163,257.918z"/>
										<path style="fill:#EA7A00;" d="M74.169,264.317H52.322c-3.528,0-6.398-2.87-6.398-6.398c0-3.529,2.87-6.399,6.398-6.399
											h21.848c3.528,0,6.399,2.87,6.399,6.399C80.568,261.447,77.698,264.317,74.169,264.317z M52.322,254.329
											c-1.979,0-3.589,1.61-3.589,3.59c0,1.979,1.61,3.589,3.589,3.589h21.848c1.979,0,3.59-1.61,3.59-3.589
											c0-1.98-1.61-3.59-3.59-3.59H52.322z"/>
									</g>
									<g>
										<path style="fill:#F02900;stroke:#5AB79C;stroke-width:2.5853;stroke-miterlimit:10;" d="M76.992,257.314
											c0,2.538-2.058,4.596-4.596,4.596H52.288c-2.538,0-4.596-2.058-4.596-4.596l0,0c0-2.538,2.058-4.596,4.596-4.596h20.108
											C74.934,252.717,76.992,254.775,76.992,257.314L76.992,257.314z"/>
										<path style="fill:#F45A40;" d="M67.402,256.256c0,0.929-0.815,1.682-1.82,1.682h-13.29c-1.005,0-1.82-0.753-1.82-1.682
											l0,0c0-0.929,0.815-1.682,1.82-1.682h13.29C66.587,254.574,67.402,255.327,67.402,256.256L67.402,256.256z"/>
									</g>
								</g>
								<g>
									<g>
										<path style="opacity:0.3;fill:#0F0D11;" d="M699.809,264.317h-21.848c-3.528,0-6.398-2.87-6.398-6.398
											c0-3.529,2.87-6.399,6.398-6.399h21.848c3.528,0,6.398,2.87,6.398,6.399C706.207,261.447,703.337,264.317,699.809,264.317
											z M677.961,254.329c-1.979,0-3.589,1.61-3.589,3.59c0,1.979,1.61,3.589,3.589,3.589h21.848
											c1.979,0,3.589-1.61,3.589-3.589c0-1.98-1.61-3.59-3.589-3.59H677.961z"/>
									</g>
									<g>
										<path style="fill:#F02900;stroke:#5AB79C;stroke-width:2.5853;stroke-miterlimit:10;" d="M702.631,257.314
											c0,2.538-2.058,4.596-4.596,4.596h-20.108c-2.538,0-4.596-2.058-4.596-4.596l0,0c0-2.538,2.058-4.596,4.596-4.596h20.108
											C700.573,252.717,702.631,254.775,702.631,257.314L702.631,257.314z"/>
										<path style="fill:#F45A40;" d="M693.041,256.256c0,0.929-0.815,1.682-1.82,1.682h-13.29c-1.005,0-1.82-0.753-1.82-1.682
											l0,0c0-0.929,0.815-1.682,1.82-1.682h13.29C692.226,254.574,693.041,255.327,693.041,256.256L693.041,256.256z"/>
									</g>
								</g>
							</g>
							<g>
								<ellipse style="fill:#23232D;" cx="596.427" cy="225.004" rx="9.91" ry="7.971"/>
								
									<ellipse style="fill:none;stroke:#0F0D11;stroke-width:1.7235;stroke-miterlimit:10;" cx="596.427" cy="225.004" rx="9.91" ry="7.971"/>
							</g>
							<g>
								<polygon style="opacity:0.3;fill:#0F0D11;" points="422.638,234.699 424.744,241.015 424.744,241.015 426.147,245.226 
									446.911,245.226 451.122,234.699 								"/>
								<g>
									<polygon style="fill:#5AB79C;" points="421.777,234.699 424.649,243.316 443.608,243.316 447.055,234.699 									"/>
									<polygon style="fill:#269489;" points="423.5,239.869 424.649,243.316 443.608,243.316 444.987,239.869 									"/>
								</g>
							</g>
						</g>
						<g>
							<g>
								<path style="fill:#269489;" d="M212.943,344.863h-8.618V316.25c0-31.432-25.572-57.003-57.003-57.003h-2.044
									c-31.432,0-57.003,25.572-57.003,57.003v22.462h-8.618V316.25c0-36.184,29.438-65.621,65.621-65.621h2.044
									c36.184,0,65.621,29.437,65.621,65.621V344.863z"/>
							</g>
							<g>
								<path style="fill:#269489;" d="M526.05,344.897h-8.618V316.25c0-36.184,29.438-65.621,65.621-65.621h2.044
									c36.183,0,65.621,29.437,65.621,65.621v22.814H642.1V316.25c0-31.432-25.572-57.003-57.003-57.003h-2.044
									c-31.432,0-57.003,25.572-57.003,57.003V344.897z"/>
							</g>
						</g>
					</g>
				</g>
				<g>
					<g>
						<polygon style="fill:#0F0D11;" points="311.184,213 309.154,204.545 305.439,201.664 272.979,222.059 311.04,221.485 
							310.845,216.044 						"/>
						<g>
							<path style="fill:#35353F;" d="M321.956,201.596h-12.518c-5.167,0-9.355,4.189-9.355,9.356s4.189,9.356,9.355,9.356h12.518
								V201.596z"/>
							<path style="opacity:0.5;fill:#0F0D11;" d="M312.885,215.136c-5.167,0-9.356-4.189-9.356-9.356
								c0-0.796,0.11-1.565,0.297-2.303c-2.27,1.707-3.745,4.415-3.745,7.473c0,5.167,4.189,9.356,9.356,9.356h12.518v-5.171
								H312.885z"/>
						</g>
					</g>
					<g>
						
							<path style="fill:none;stroke:#0F0D11;stroke-width:2.5853;stroke-linecap:round;stroke-linejoin:round;stroke-miterlimit:10;" d="
							M452.226,221.485H273.931c18.205-12.528,67.142-44.867,87.522-45.099c17.008-0.193,92.208-2.011,111.455,1.149
							c14.19,2.33,35.391,20.731,45.56,30.245L452.226,221.485z"/>
						
							<line style="fill:none;stroke:#0F0D11;stroke-width:3.4471;stroke-miterlimit:10;" x1="449.927" y1="176.358" x2="454.236" y2="220.049"/>
					</g>
				</g>
			</g>
		</g>
	</g>
</g>
</svg>
